<svg width="125" height="32" viewBox="0 0 125 32" fill="none" xmlns="http://www.w3.org/2000/svg">
<g clip-path="url(#clip0_6903_230559)">
<path d="M86.9395 21.2851H92.8465C93.227 21.2851 93.5674 21.1097 93.8077 20.8361L96.6061 17.9561C96.6161 17.9458 96.6261 17.9355 96.6361 17.9251L96.6611 17.8993C96.8714 17.6568 97.0015 17.3471 97.0015 17.0013V11.36H93.7326V17.92H86.9395" fill="white"/>
<path d="M89.608 21.2851H83.7009C83.3204 21.2851 82.98 21.1097 82.7397 20.8361L79.9414 17.9561C79.9314 17.9458 79.9214 17.9355 79.9113 17.9251L79.8863 17.8993C79.6761 17.6568 79.5459 17.3471 79.5459 17.0013V11.36H82.8148V17.92H89.608" fill="white"/>
<path d="M113.667 5.24902H105.387V8.60902H113.667V5.24902Z" fill="white"/>
<path d="M114.317 17.9149H121.731V11.3549H125V16.9961C125 17.342 124.87 17.6568 124.66 17.8942L124.635 17.9252C124.625 17.9355 124.615 17.9458 124.605 17.9561L121.806 20.8361C121.571 21.1045 121.231 21.28 120.845 21.28H114.317V17.9097V17.9149Z" fill="white"/>
<path d="M125 5.24902H118.482V8.60902H125V5.24902Z" fill="white"/>
<path d="M91.5354 5.24902H85.0176V8.60902H91.5354V5.24902Z" fill="white"/>
<path d="M111.674 16.7071V14.7252H100.951V11.3549H110.783C111.118 11.3549 111.424 11.4891 111.654 11.7058L111.679 11.7316C111.689 11.742 111.699 11.7523 111.709 11.7626L114.502 14.6426C114.768 14.8903 114.938 15.2413 114.938 15.6336V16.702" fill="white"/>
<path d="M111.964 8.61422H104.22V14.3949H100.951V9.52777C100.951 9.18196 101.081 8.86712 101.292 8.6297L101.317 8.59874C101.327 8.58841 101.337 8.57809 101.347 8.56777L104.14 5.68777C104.375 5.41938 104.716 5.2439 105.101 5.2439H111.959" fill="white"/>
<path d="M71.962 23.3858H67.3965V26.7561H71.0709C71.4513 26.7561 71.7918 26.5806 72.032 26.3071L74.8304 23.4271C74.8404 23.4168 74.8504 23.4064 74.8604 23.3961L74.8855 23.3703C75.0957 23.1277 75.2259 22.818 75.2259 22.4722V11.36H71.957V23.391L71.962 23.3858Z" fill="white"/>
<path d="M52.3431 20.2529H43.8129V11.9742H40.5439V19.3342C40.5439 19.68 40.6741 19.9948 40.8844 20.2322L40.9094 20.2632C40.9194 20.2735 40.9294 20.2838 40.9394 20.2942L43.7378 23.1742C43.9731 23.4426 44.3135 23.618 44.6989 23.618H51.452C51.8325 23.618 52.1729 23.4426 52.4132 23.169L55.2115 20.289C55.2216 20.2787 55.2316 20.2684 55.2416 20.258L55.2666 20.2322C55.4769 19.9948 55.607 19.68 55.607 19.3342V9.9303H52.3381V20.2477L52.3431 20.2529Z" fill="white"/>
<path d="M67.4008 23.3651C67.611 23.1277 67.7412 22.8129 67.7412 22.4671V9.9303H62.1996C61.8191 9.9303 61.4787 10.1058 61.2384 10.3793L58.44 13.2593C58.43 13.2697 58.42 13.28 58.41 13.2903L58.385 13.3161C58.1747 13.5587 58.0446 13.8684 58.0446 14.2142V21.2748H64.4773V23.3806H57.9795V26.7509H63.5862C63.9667 26.7509 64.3071 26.5755 64.5474 26.3019L67.3457 23.4219C67.3557 23.4116 67.3658 23.4013 67.3758 23.3909L67.4008 23.3651ZM64.4773 17.92H61.3135V13.3006H64.4773V17.92Z" fill="white"/>
<path d="M75.1954 5.24902H71.9365V8.60902H75.1954V5.24902Z" fill="white"/>
<path d="M49.42 5.24902H46.1611V8.60902H49.42V5.24902Z" fill="white"/>
<path d="M96.4514 21.2852H110.784C111.164 21.2852 111.504 21.1097 111.745 20.8362L114.538 17.9562C114.548 17.9458 114.558 17.9355 114.568 17.9252L114.593 17.8994C114.803 17.6568 114.934 17.3471 114.934 17.0013V16.7123H111.665V17.92H96.4414V21.2903L96.4514 21.2852Z" fill="white"/>
<path d="M6.08691 32V25.7239H24.9495V6.27613H6.08691V0H21.4053C22.016 0 22.5817 0.268387 23.0022 0.748387L23.0473 0.8L30.4812 8.45935C30.8416 8.87226 31.0369 9.39871 31.0369 9.93032V22.0697C31.0369 22.6064 30.8416 23.1277 30.4812 23.5406L23.0272 31.2258L23.0072 31.2516C22.5867 31.7368 22.016 32 21.4103 32H6.08691Z" fill="white"/>
<path d="M6.08691 25.7084L6.08691 6.26062H-0.00039053L-0.00039053 25.7084H6.08691Z" fill="white"/>
<path d="M15.5187 10.4568L17.0656 13.6878L20.5297 14.209L18.0217 16.7226L18.6124 20.2787L15.5187 18.6013L12.425 20.2787L13.0157 16.7226L10.5127 14.209L13.9718 13.6878L15.5187 10.4568Z" fill="white"/>
</g>
<defs>
<clipPath id="clip0_6903_230559">
<rect width="125" height="32" fill="white"/>
</clipPath>
</defs>
</svg>
